<?xml version="1.0" encoding="UTF-8" standalone="no"?>
<svg
   xmlns:dc="http://purl.org/dc/elements/1.1/"
   xmlns:cc="http://creativecommons.org/ns#"
   xmlns:rdf="http://www.w3.org/1999/02/22-rdf-syntax-ns#"
   xmlns:svg="http://www.w3.org/2000/svg"
   xmlns="http://www.w3.org/2000/svg"
   id="svg74"
   width="20px"
   viewBox="0 0 20 21"
   version="1.1"
   height="21px">
  <metadata
     id="metadata78">
    <rdf:RDF>
      <cc:Work
         rdf:about="">
        <dc:format>image/svg+xml</dc:format>
        <dc:type
           rdf:resource="http://purl.org/dc/dcmitype/StillImage" />
        <dc:title></dc:title>
      </cc:Work>
    </rdf:RDF>
  </metadata>
  <desc
     id="desc66" />
  <defs
     id="defs68" />
  <g
     stroke-width="1"
     stroke="none"
     id="Page-1"
     fill-rule="evenodd"
     fill="none">
    <g
       transform="translate(-464.000000, -254.000000)"
       opacity="0.9"
       id="Core"
       fill="#000000">
      <g
         transform="translate(464.000000, 254.500000)"
         id="history">
        <path
           id="Shape"
           d="M10.5,0 C7,0 3.9,1.9 2.3,4.8 L0,2.5 L0,9 L6.5,9 L3.7,6.2 C5,3.7 7.5,2 10.5,2 C14.6,2 18,5.4 18,9.5 C18,13.6 14.6,17 10.5,17 C7.2,17 4.5,14.9 3.4,12 L1.3,12 C2.4,16 6.1,19 10.5,19 C15.8,19 20,14.7 20,9.5 C20,4.3 15.7,0 10.5,0 L10.5,0 Z M9,5 L9,10.1 L13.7,12.9 L14.5,11.6 L10.5,9.2 L10.5,5 L9,5 L9,5 Z" />
      </g>
    </g>
  </g>
</svg>
